<?xml version="1.0" standalone="no"?>
<svg xmlns:xlink="http://www.w3.org/1999/xlink" id="wave" style="transform:rotate(0deg); transition: 0.3s" viewBox="0 0 1440 130" version="1.1" xmlns="http://www.w3.org/2000/svg"><defs><linearGradient id="sw-gradient-0" x1="0" x2="0" y1="1" y2="0"><stop stop-color="rgba(255, 255, 255, 1)" offset="0%"/><stop stop-color="rgba(255, 255, 255, 1)" offset="100%"/></linearGradient></defs><path style="transform:translate(0, 0px); opacity:1" fill="url(#sw-gradient-0)" d="M0,65L20,71.5C40,78,80,91,120,80.2C160,69,200,35,240,28.2C280,22,320,43,360,52C400,61,440,56,480,52C520,48,560,43,600,52C640,61,680,82,720,91C760,100,800,95,840,82.3C880,69,920,48,960,45.5C1000,43,1040,61,1080,71.5C1120,82,1160,87,1200,91C1240,95,1280,100,1320,84.5C1360,69,1400,35,1440,30.3C1480,26,1520,52,1560,62.8C1600,74,1640,69,1680,71.5C1720,74,1760,82,1800,86.7C1840,91,1880,91,1920,84.5C1960,78,2000,65,2040,54.2C2080,43,2120,35,2160,32.5C2200,30,2240,35,2280,49.8C2320,65,2360,91,2400,91C2440,91,2480,65,2520,62.8C2560,61,2600,82,2640,95.3C2680,108,2720,113,2760,112.7C2800,113,2840,108,2860,106.2L2880,104L2880,130L2860,130C2840,130,2800,130,2760,130C2720,130,2680,130,2640,130C2600,130,2560,130,2520,130C2480,130,2440,130,2400,130C2360,130,2320,130,2280,130C2240,130,2200,130,2160,130C2120,130,2080,130,2040,130C2000,130,1960,130,1920,130C1880,130,1840,130,1800,130C1760,130,1720,130,1680,130C1640,130,1600,130,1560,130C1520,130,1480,130,1440,130C1400,130,1360,130,1320,130C1280,130,1240,130,1200,130C1160,130,1120,130,1080,130C1040,130,1000,130,960,130C920,130,880,130,840,130C800,130,760,130,720,130C680,130,640,130,600,130C560,130,520,130,480,130C440,130,400,130,360,130C320,130,280,130,240,130C200,130,160,130,120,130C80,130,40,130,20,130L0,130Z"/></svg>